<svg width="58" height="49" viewBox="0 0 58 49" fill="none" xmlns="http://www.w3.org/2000/svg">
<g clip-path="url(#clip0_7_23296)">
<path d="M57.1244 11.8612H45.6813C45.9794 11.7685 46.2775 11.6874 46.5641 11.6063C47.1375 11.4442 47.6764 11.2936 48.1465 11.1082C50.0842 10.3206 52.2743 9.41704 53.5699 7.18142C54.4414 5.6524 54.4414 3.67161 53.5699 2.131C52.7558 0.694645 51.3684 -0.0814518 49.7517 -0.000367103C46.9425 0.138635 44.7296 2.47851 42.9638 7.14667C42.5969 8.13127 42.23 9.15062 41.8974 10.17C41.5649 9.1622 41.2095 8.14285 40.8311 7.14667C39.0882 2.49009 36.8753 0.150219 34.0661 -0.000367103C32.4608 -0.0930353 31.0734 0.683061 30.2479 2.11942C29.3764 3.66003 29.3764 5.64081 30.2479 7.16984C31.5321 9.40546 33.7336 10.309 35.6713 11.0967C36.1529 11.2936 36.7033 11.4442 37.2995 11.6179C37.5747 11.699 37.8614 11.7801 38.148 11.8612H26.659V14.2937L11.3517 1.0769L9.63179 3.10402L26.6475 17.8151V19.46C25.3289 19.3094 23.8383 19.402 22.1987 19.7496C21.2355 19.9581 20.215 19.6221 19.55 18.8808L4.64403 2.40901L2.69479 4.21604L17.5893 20.6994C18.8849 22.1358 20.8571 22.7844 22.7376 22.379C23.8383 22.1473 25.455 21.9273 26.8768 22.2053C27.2323 22.2748 27.5533 22.379 27.8514 22.5064C28.1725 22.6454 28.4362 22.8192 28.6655 23.0161L28.8146 23.1551C29.342 23.63 30.0185 24.2903 30.8326 25.1243C31.4518 25.7614 32.1283 26.4796 32.8048 27.2093C34.9719 29.5608 37.2537 32.1439 38.4117 33.4876C38.5952 33.6961 38.6067 33.9857 38.4576 34.1826C38.2168 34.4838 37.9531 34.646 37.6894 34.6691C37.1849 34.7271 36.474 34.3448 35.6599 33.6266C31.4633 29.9315 29.9841 29.3407 28.9407 29.5956C28.7802 29.6303 28.6197 29.6998 28.4706 29.7809C28.2298 29.9199 27.8973 30.1747 27.7139 30.6612C27.5533 31.0551 27.5189 31.5416 27.5992 32.086C27.6221 32.2482 27.6565 32.4219 27.6909 32.6073C27.8973 33.6266 28.2757 34.785 28.7458 35.8622C29.2962 37.1248 29.9497 38.26 30.718 39.2446C30.9932 39.6037 31.3142 39.9628 31.6467 40.3103C32.0251 40.7042 32.4264 41.0632 32.8507 41.3876C33.4354 41.8278 34.0202 42.1868 34.6165 42.4649L33.8482 42.9514C33.2405 42.8587 31.5665 42.488 29.7204 40.9358C29.3535 40.6231 28.9981 40.2756 28.6541 39.9165C28.505 39.7543 28.3445 39.5806 28.1954 39.3952C28.0005 39.1635 27.8056 38.9087 27.6107 38.6423L25.478 40.2176C27.3355 42.7892 29.365 44.1329 30.9014 44.8163L30.5001 45.0711C26.808 44.5731 24.3657 40.6115 24.3199 40.6115C24.2969 40.6115 22.0725 42.0015 22.0725 42.0131C21.9808 42.1058 23.4829 44.3182 25.8563 45.9862C25.2142 45.7546 24.5607 45.3955 23.9071 44.9206C20.3985 42.3374 17.016 36.0707 15.8923 31.7501C14.9521 28.1013 9.16168 22.8076 3.79554 18.1047C2.90118 17.317 2.19028 16.6915 1.8807 16.3903L0.0117188 18.2784C0.390101 18.6607 1.14686 19.321 2.08709 20.155C5.46959 23.1204 12.5098 29.2828 13.3239 32.4335C14.5851 37.2986 18.3002 44.1097 22.3362 47.0867C24.0332 48.3377 25.7646 48.9632 27.496 48.9632C29.2274 48.9632 30.4199 48.2798 30.546 48.1987L41.2095 41.4803H40.2463V12.5214H43.6861V41.4687H57.1359V11.8612H57.1244ZM37.5862 9.26646C37.1275 9.13904 36.6918 9.01162 36.3593 8.8842C34.8458 8.25869 33.2749 7.6216 32.4494 6.18524C31.9907 5.38597 31.9907 4.34346 32.4494 3.53261C32.6557 3.16194 33.1488 2.54801 34.0661 2.54801H34.1807C35.8777 2.64068 37.3225 4.32029 38.5952 7.71426C38.8589 8.42086 39.1112 9.12745 39.352 9.84563C38.7672 9.61396 38.148 9.44021 37.5747 9.27804L37.5862 9.26646ZM45.1653 7.72585C46.4609 4.27396 47.9401 2.54801 49.6715 2.46692H49.7976C50.7493 2.46692 51.2423 3.09244 51.4602 3.46311C51.9303 4.28554 51.9303 5.35122 51.4602 6.17365C50.6117 7.64476 49.0179 8.30502 47.4585 8.93053C47.126 9.06954 46.6788 9.19696 46.1858 9.32437C45.6125 9.48654 44.9818 9.6603 44.3856 9.90355C44.6264 9.17379 44.8901 8.44403 45.1653 7.71426V7.72585Z" fill="#212121"/>
</g>
<defs>
<clipPath id="clip0_7_23296">
<rect width="57.1242" height="48.9636" fill="white"/>
</clipPath>
</defs>
</svg>
