<svg width="47" height="47" viewBox="0 0 47 47" fill="none" xmlns="http://www.w3.org/2000/svg">
<path d="M31.2803 12.5001C31.4995 12.5001 31.7098 12.587 31.8649 12.7417C32.0199 12.8964 32.107 13.1063 32.107 13.3251L32.107 18.9351C32.7935 19.1188 33.4002 19.5235 33.8328 20.0863C34.2655 20.6491 34.5 21.3387 34.5 22.048C34.5 22.7574 34.2655 23.447 33.8328 24.0098C33.4002 24.5726 32.7935 24.9773 32.107 25.161L32.107 33.675C32.107 33.8938 32.0199 34.1036 31.8649 34.2584C31.7098 34.4131 31.4995 34.5 31.2803 34.5C31.0611 34.5 30.8508 34.4131 30.6957 34.2584C30.5407 34.1036 30.4536 33.8938 30.4536 33.675L30.4536 25.161C29.7671 24.9773 29.1604 24.5726 28.7278 24.0098C28.2951 23.447 28.0606 22.7574 28.0606 22.048C28.0606 21.3387 28.2951 20.6491 28.7278 20.0863C29.1604 19.5235 29.7671 19.1188 30.4536 18.9351L30.4536 13.3251C30.4536 13.1063 30.5407 12.8964 30.6957 12.7417C30.8508 12.587 31.061 12.5001 31.2803 12.5001ZM16.7197 12.5001C16.939 12.5001 17.1492 12.587 17.3043 12.7417C17.4593 12.8964 17.5464 13.1063 17.5464 13.3251L17.5464 16.0201C18.2329 16.2038 18.8396 16.6085 19.2722 17.1713C19.7049 17.7341 19.9394 18.4237 19.9394 19.1331C19.9394 19.8424 19.7049 20.532 19.2722 21.0948C18.8396 21.6576 18.2329 22.0623 17.5464 22.246L17.5464 33.675C17.5464 33.7833 17.525 33.8906 17.4835 33.9907C17.4419 34.0908 17.381 34.1818 17.3043 34.2584C17.2275 34.335 17.1364 34.3957 17.0361 34.4372C16.9358 34.4787 16.8283 34.5 16.7197 34.5C16.6111 34.5 16.5036 34.4787 16.4033 34.4372C16.303 34.3957 16.2119 34.335 16.1352 34.2584C16.0584 34.1818 15.9975 34.0908 15.956 33.9907C15.9144 33.8906 15.893 33.7833 15.893 33.675L15.893 22.246C15.2065 22.0623 14.5998 21.6576 14.1672 21.0948C13.7345 20.532 13.5 19.8424 13.5 19.1331C13.5 18.4237 13.7345 17.7341 14.1672 17.1713C14.5998 16.6085 15.2065 16.2038 15.893 16.0201L15.893 13.3251C15.8915 13.2163 15.9119 13.1084 15.9529 13.0076C15.9939 12.9069 16.0548 12.8153 16.1318 12.7384C16.2089 12.6615 16.3006 12.6008 16.4016 12.5599C16.5026 12.5189 16.6107 12.4986 16.7197 12.5001ZM23.9945 12.5001C24.1035 12.4986 24.2116 12.5189 24.3126 12.5599C24.4136 12.6008 24.5053 12.6615 24.5823 12.7384C24.6594 12.8153 24.7202 12.9069 24.7613 13.0076C24.8023 13.1084 24.8227 13.2163 24.8212 13.3251L24.8212 26.195C25.5077 26.3788 26.1144 26.7834 26.547 27.3463C26.9797 27.9091 27.2142 28.5986 27.2142 29.308C27.2142 30.0174 26.9797 30.7069 26.547 31.2698C26.1144 31.8326 25.5077 32.2373 24.8212 32.421L24.8212 33.675C24.8212 33.8938 24.7341 34.1036 24.579 34.2584C24.424 34.4131 24.2137 34.5 23.9945 34.5C23.7752 34.5 23.565 34.4131 23.4099 34.2584C23.2549 34.1036 23.1678 33.8938 23.1678 33.675L23.1678 32.421C22.4813 32.2373 21.8746 31.8326 21.442 31.2698C21.0093 30.7069 20.7748 30.0174 20.7748 29.308C20.7748 28.5986 21.0093 27.9091 21.442 27.3463C21.8746 26.7834 22.4813 26.3788 23.1678 26.195L23.1678 13.3251C23.1678 13.1063 23.2549 12.8964 23.4099 12.7417C23.565 12.587 23.7752 12.5001 23.9945 12.5001Z" fill="#212121"/>
</svg>
