<svg width="57" height="111" viewBox="0 0 57 111" fill="none" xmlns="http://www.w3.org/2000/svg">
<g clip-path="url(#clip0_2752_30899)">
<path d="M8.10569 11.0198C3.99303 3.32581 21.6637 -3.46302 24.6153 7.65493C25.7567 11.9447 22.3524 14.6209 21.4079 18.6548C20.6995 21.6261 20.1091 24.991 20.1878 28.0608C20.2272 29.6744 21.3292 33.1376 20.3256 33.9051" stroke="#010101" stroke-width="3.52232" stroke-miterlimit="10"/>
<path d="M22.1367 42.5078C22.7271 43.2162 23.0616 44.0624 23.1796 45.0069" stroke="#010101" stroke-width="3.52232" stroke-miterlimit="10"/>
<path d="M34.5107 6.70548C34.983 -2.01178 53.6178 1.35312 50.3513 12.3924C49.0919 16.6624 44.8022 17.1741 41.9095 20.1257C39.7647 22.31 37.5214 24.8681 35.9865 27.5246C35.1797 28.9217 34.3336 32.4637 33.0742 32.6014" stroke="#010101" stroke-width="3.52232" stroke-miterlimit="10"/>
<path d="M30.1671 40.8906C30.2852 41.8155 30.1671 42.701 29.7539 43.5668" stroke="#010101" stroke-width="3.52232" stroke-miterlimit="10"/>
<path d="M55.0222 55.6484H1.67578V108.837H55.0222V55.6484Z" stroke="#010101" stroke-width="3.34522" stroke-miterlimit="10"/>
<path d="M1.86719 77.2153C2.33945 75.7394 11.9619 70.2493 15.1497 68.2619C21.8598 64.0902 26.2676 59.5053 33.0761 55.6484" stroke="#010101" stroke-width="3.52232" stroke-miterlimit="10"/>
<path d="M0.882812 93.9414C3.61802 93.7643 7.12067 88.3332 9.28522 86.3064C13.8701 82.0363 19.1241 78.9272 24.0239 74.8736C31.1669 68.9703 42.2258 61.6305 48.9163 55.6484" stroke="#010101" stroke-width="3.52232" stroke-miterlimit="10"/>
<path d="M24.4961 109.189C31.0685 105.687 36.7947 101.063 43.2097 97.4025C46.9484 95.2773 50.6282 90.6334 54.5047 89.5117" stroke="#010101" stroke-width="3.52232" stroke-miterlimit="10"/>
<path d="M3.51953 108.639C3.65728 108.698 3.51953 108.914 3.83438 108.796C6.01861 105.254 11.2726 103.621 14.2439 100.63C16.2707 98.5832 17.9237 96.2416 20.0095 94.2541C25.4603 89.0789 32.1507 85.3794 38.6247 81.621C41.4583 79.968 43.6425 77.8625 46.181 75.9144C47.952 74.5567 49.4671 73.7499 50.8643 72.0576C52.2024 70.444 54.0914 68.4369 55.9805 67.4727" stroke="#010101" stroke-width="3.52232" stroke-miterlimit="10"/>
</g>
<defs>
<clipPath id="clip0_2752_30899">
<rect width="56.7901" height="110.747" fill="white"/>
</clipPath>
</defs>
</svg>
