<svg width="133" height="170" viewBox="0 0 133 170" fill="none" xmlns="http://www.w3.org/2000/svg">
<g clip-path="url(#clip0_7_23302)">
<path d="M109.287 71.4613L91.9519 85.289L88.5131 88.0514L66.4672 105.63L44.1702 87.9415L40.7 85.1791L23.4119 71.4613H0.737976V167.925H23.5061V100.796L36.6645 110.606L40.7785 113.666L61.0029 128.734H71.9473L91.7163 113.996L95.8146 110.951L109.444 100.796V167.925H132.197V71.4613H109.287Z" fill="#212121"/>
</g>
<path d="M66.4218 71.5179L65.7111 73.045L65.0004 71.5179L38.1249 84.225V169.049H42.2138V86.8494L65.7111 75.7351L89.2134 86.8494V169.049H93.2973V84.225L66.4218 71.5179Z" fill="#999999"/>
<path d="M63.5574 73.8226C62.3813 68.3413 55.3146 66.3693 49.0837 64.6298C46.9116 64.023 44.8597 63.4466 43.143 62.7437C36.0963 59.8666 28.1088 56.6051 23.6245 48.7775C20.7017 43.6755 20.7068 37.0615 23.6295 31.9342C26.267 27.3176 30.7213 24.7438 35.9913 25.032C45.6554 25.5174 53.4378 33.9315 59.7738 50.7496C61.5255 55.4016 63.172 60.1396 64.6634 64.827C64.9237 65.6411 65.3241 66.5361 65.7345 67.4615C66.5753 69.3577 67.4411 71.3247 67.5862 73.2209L63.5524 73.8176L63.5574 73.8226ZM35.2556 29.143C30.6312 29.143 28.2089 32.187 27.1729 34.0023C24.9608 37.8706 24.9558 42.8614 27.1629 46.7094C30.9465 53.3133 37.9281 56.1601 44.6795 58.921C46.1759 59.5328 48.1178 60.0739 50.1747 60.6503C53.4278 61.5554 57.0512 62.5718 60.1642 64.1899C58.8579 60.1952 57.4466 56.1803 55.9602 52.2211C50.2648 37.0969 43.6685 29.5526 35.791 29.1531L35.2605 29.1379L35.2556 29.143Z" fill="#999999"/>
<path d="M68.6373 73.8226L64.6035 73.2259C64.7486 71.3247 65.6194 69.3577 66.4602 67.4564C66.8656 66.5361 67.266 65.6462 67.5262 64.8321C69.0377 60.0991 70.6842 55.3612 72.4159 50.7546C78.7519 33.9366 86.5343 25.5225 96.1984 25.037C101.443 24.764 105.928 27.3226 108.565 31.9493C111.488 37.0767 111.488 43.6805 108.565 48.7826C104.071 56.6202 96.0883 59.8767 89.0466 62.7488C87.33 63.4516 85.2781 64.023 83.106 64.6298C76.8751 66.3743 69.8084 68.3464 68.6273 73.8277L68.6373 73.8226ZM96.9341 29.143L96.4036 29.1581C88.5312 29.5525 81.9349 37.102 76.2395 52.2261C74.7631 56.1449 73.3518 60.1649 72.0355 64.1899C75.1485 62.5718 78.7719 61.5554 82.025 60.6503C84.0819 60.0739 86.0238 59.5328 87.5202 58.921C94.2666 56.1651 101.243 53.3183 105.032 46.7094C107.239 42.8664 107.239 37.8756 105.027 34.0074C103.996 32.187 101.564 29.143 96.9341 29.143Z" fill="#999999"/>
<defs>
<clipPath id="clip0_7_23302">
<rect width="132.197" height="167.925" fill="white"/>
</clipPath>
</defs>
</svg>
