<svg width="367" height="76" viewBox="0 0 367 76" fill="none" xmlns="http://www.w3.org/2000/svg">
<g clip-path="url(#clip0_7_23484)">
<path d="M48.2088 31.5231L40.5619 37.6227L39.045 38.8413L29.3201 46.5957L19.4844 38.7928L17.9536 37.5743L10.3275 31.5231H0.325562V74.0754H10.3691V44.4632L16.1735 48.7905L17.9883 50.1406L26.9097 56.7872H31.7375L40.458 50.286L42.2658 48.9428L48.2781 44.4632V74.0754H58.3147V31.5231H48.2088Z" fill="#212121"/>
<path d="M29.2938 31.3062L28.9803 31.9798L28.6668 31.3062L16.8115 36.9115V74.329H18.6152V38.0692L28.9803 33.1664L39.3477 38.0692V74.329H41.1492V36.9115L29.2938 31.3062Z" fill="#999999"/>
<path d="M28.0257 32.326C27.5069 29.9081 24.3897 29.0382 21.6411 28.2709C20.6829 28.0032 19.7778 27.749 19.0205 27.4389C15.9121 26.1697 12.3886 24.731 10.4105 21.2781C9.12121 19.0275 9.12342 16.1099 10.4127 13.8482C11.5762 11.8117 13.541 10.6763 15.8657 10.8035C20.1288 11.0176 23.5618 14.7292 26.3567 22.148C27.1294 24.2002 27.8557 26.2902 28.5136 28.3579C28.6284 28.717 28.8051 29.1118 28.9861 29.52C29.357 30.3565 29.7389 31.2241 29.8029 32.0606L28.0235 32.3238L28.0257 32.326ZM15.5412 12.6169C13.5013 12.6169 12.4328 13.9597 11.9758 14.7605C11 16.4668 10.9978 18.6684 11.9714 20.3658C13.6404 23.2789 16.7201 24.5347 19.6983 25.7526C20.3584 26.0225 21.215 26.2612 22.1224 26.5155C23.5574 26.9147 25.1557 27.3631 26.5289 28.0768C25.9527 26.3147 25.3301 24.5437 24.6745 22.7971C22.1621 16.1256 19.2523 12.7976 15.7774 12.6214L15.5434 12.6147L15.5412 12.6169Z" fill="#999999"/>
<path d="M30.2671 32.3263L28.4877 32.0631C28.5518 31.2244 28.9359 30.3567 29.3068 29.5181C29.4856 29.1121 29.6622 28.7195 29.777 28.3604C30.4438 26.2726 31.1701 24.1826 31.934 22.1506C34.7289 14.7318 38.1619 11.0201 42.4249 10.806C44.7386 10.6855 46.7167 11.8142 47.8802 13.8552C49.1694 16.1169 49.1694 19.03 47.8802 21.2806C45.8976 24.738 42.3764 26.1745 39.2701 27.4414C38.5129 27.7515 37.6077 28.0035 36.6496 28.2712C33.901 29.0407 30.7837 29.9106 30.2627 32.3286L30.2671 32.3263ZM42.7495 12.6172L42.5154 12.6239C39.0427 12.7979 36.133 16.1281 33.6206 22.7997C32.9694 24.5283 32.3468 26.3016 31.7662 28.0771C33.1394 27.3634 34.7377 26.915 36.1727 26.5157C37.0801 26.2615 37.9367 26.0228 38.5968 25.7529C41.5728 24.5372 44.6503 23.2814 46.3215 20.3661C47.2951 18.6709 47.2951 16.4694 46.3193 14.763C45.8645 13.96 44.7916 12.6172 42.7495 12.6172Z" fill="#999999"/>
</g>
<path d="M71.1871 31.6133H81.2281V74.593H71.1871V31.6133Z" fill="#212121"/>
<path d="M117.356 66.0007V74.593H95.2523V31.6133H105.169V66.0007H117.356Z" fill="#212121"/>
<path d="M150.927 66.0007V74.593H128.823V31.6133H138.74V66.0007H150.927Z" fill="#212121"/>
<path d="M172.311 39.5941V49.3541H188.537V57.151H172.311V66.6076H188.537V74.5884H162.389V31.6133H188.537V39.5941H172.311Z" fill="#212121"/>
<path d="M217.924 31.6133C232.128 31.6133 240.211 42.1134 240.211 53.1054C240.211 64.0975 232.192 74.593 217.924 74.593H202.189V31.6133H217.924ZM212.106 40.2101V65.9961H217.434C225.457 65.9961 230.111 59.7347 230.111 53.1008C230.111 46.467 225.457 40.2101 217.434 40.2101H212.106Z" fill="#212121"/>
<path d="M249.963 53.1066C249.963 41.3192 258.413 30.5111 272.682 30.5111C286.95 30.5111 295.336 41.3192 295.336 53.1066C295.336 64.8939 286.886 75.7021 272.682 75.7021C258.477 75.7021 249.963 64.8939 249.963 53.1066ZM285.235 53.1066C285.235 46.0452 280.458 39.4803 272.682 39.4803C264.906 39.4803 260.128 46.0498 260.128 53.1066C260.128 60.1634 264.841 66.7374 272.682 66.7374C280.522 66.7374 285.235 60.168 285.235 53.1066Z" fill="#212121"/>
<path d="M333.073 59.6105V31.6133H342.935V74.593H332.582L317.15 46.9681V74.593H307.232V31.6133H317.581L333.073 59.6105Z" fill="#212121"/>
<path d="M356.964 31.6133H367.005V74.593H356.964V31.6133Z" fill="#212121"/>
<defs>
<clipPath id="clip0_7_23484">
<rect width="58.3146" height="74.0754" fill="white"/>
</clipPath>
</defs>
</svg>
