<svg width="20" height="26" viewBox="0 0 20 26" fill="none" xmlns="http://www.w3.org/2000/svg">
<path d="M10.1499 0.777344C11.2297 0.777344 12.2653 1.19323 13.0288 1.9335C13.7924 2.67378 14.2213 3.6778 14.2213 4.72471V12.6194C14.2213 13.6664 13.7924 14.6704 13.0288 15.4107C12.2653 16.1509 11.2297 16.5668 10.1499 16.5668C9.07009 16.5668 8.03451 16.1509 7.27097 15.4107C6.50743 14.6704 6.07847 13.6664 6.07847 12.6194V4.72471C6.07847 3.6778 6.50743 2.67378 7.27097 1.9335C8.03451 1.19323 9.07009 0.777344 10.1499 0.777344ZM19.6499 12.6194C19.6499 17.2642 16.1078 21.0931 11.507 21.7379V25.7773H8.79276V21.7379C4.19204 21.0931 0.649902 17.2642 0.649902 12.6194H3.36419C3.36419 14.3643 4.07911 16.0377 5.35168 17.2715C6.62425 18.5053 8.35022 19.1984 10.1499 19.1984C11.9496 19.1984 13.6756 18.5053 14.9481 17.2715C16.2207 16.0377 16.9356 14.3643 16.9356 12.6194H19.6499Z" fill="#A3A3A3"/>
</svg>
