<svg width="47" height="59" viewBox="0 0 47 59" fill="none" xmlns="http://www.w3.org/2000/svg">
<g clip-path="url(#clip0_2752_34564)">
<path d="M38.3271 25.0625L32.2478 29.9118L31.0418 30.8805L23.3105 37.0453L15.4911 30.842L14.2741 29.8732L8.21134 25.0625H0.259766V58.8917H8.24438V35.35L12.8589 38.7901L14.3017 39.8635L21.3942 45.1476H25.2323L32.1652 39.9791L33.6024 38.9112L38.3821 35.35V58.8917H46.3613V25.0625H38.3271Z" fill="#212121"/>
<path d="M23.2887 24.8906L23.0395 25.4262L22.7903 24.8906L13.3652 29.3469V59.0939H14.7992V30.2672L23.0395 26.3696L31.2816 30.2672V59.0939H32.7137V29.3469L23.2887 24.8906Z" fill="#999999"/>
<path d="M22.2798 25.7002C21.8674 23.7779 19.3891 23.0864 17.204 22.4764C16.4423 22.2636 15.7227 22.0614 15.1207 21.8149C12.6495 20.8059 9.84827 19.6621 8.27568 16.9171C7.25069 15.1278 7.25244 12.8084 8.27744 11.0102C9.20239 9.39123 10.7645 8.48863 12.6126 8.5897C16.0017 8.75994 18.731 11.7107 20.953 17.6087C21.5672 19.2401 22.1447 20.9017 22.6677 22.5455C22.759 22.831 22.8994 23.1449 23.0433 23.4694C23.3382 24.1344 23.6418 24.8242 23.6927 25.4892L22.2781 25.6984L22.2798 25.7002ZM12.3546 10.0314C10.7329 10.0314 9.88337 11.0989 9.52006 11.7355C8.7443 13.0921 8.74254 14.8423 9.51655 16.1918C10.8434 18.5077 13.2918 19.5061 15.6595 20.4743C16.1843 20.6889 16.8653 20.8786 17.5866 21.0808C18.7275 21.3982 19.9982 21.7546 21.0899 22.3221C20.6318 20.9212 20.1368 19.5132 19.6155 18.1247C17.6182 12.8208 15.305 10.175 12.5424 10.0349L12.3563 10.0296L12.3546 10.0314Z" fill="#999999"/>
<path d="M24.0611 25.7016L22.6465 25.4924C22.6974 24.8256 23.0028 24.1358 23.2976 23.469C23.4398 23.1463 23.5802 22.8342 23.6715 22.5487C24.2015 20.8889 24.779 19.2273 25.3862 17.6119C27.6082 11.7139 30.3374 8.76313 33.7266 8.59289C35.566 8.49714 37.1386 9.39442 38.0635 11.017C39.0885 12.8151 39.0885 15.131 38.0635 16.9203C36.4874 19.6689 33.688 20.8109 31.2185 21.8181C30.6165 22.0646 29.8969 22.265 29.1352 22.4778C26.9501 23.0896 24.4718 23.7811 24.0576 25.7034L24.0611 25.7016ZM33.9846 10.0328L33.7986 10.0381C31.0377 10.1764 28.7245 12.824 26.7272 18.1279C26.2094 19.5022 25.7144 20.912 25.2528 22.3235C26.3445 21.756 27.6152 21.3996 28.7561 21.0822C29.4774 20.88 30.1584 20.6903 30.6832 20.4757C33.0491 19.5093 35.4958 18.5109 36.8244 16.1932C37.5984 14.8455 37.5984 13.0953 36.8226 11.7387C36.4611 11.1003 35.6081 10.0328 33.9846 10.0328Z" fill="#999999"/>
</g>
<defs>
<clipPath id="clip0_2752_34564">
<rect width="46.3603" height="58.8901" fill="white"/>
</clipPath>
</defs>
</svg>
