  <svg class="bookmark-img" role="img" aria-label="niet opgeslagen" width="45" height="41"
                    viewBox="0 0 50 33" fill="none" xmlns="http://www.w3.org/2000/svg">
                    <g clip-path="url(#clip0_250_16786)">
                        <path d="M28 6.35938C28.9059 6.35938 29.6406 7.09409 29.6406 8C29.6406 8.90591 28.9059 9.64062 28 9.64062H12C11.0941 9.64062 10.3594 8.90591 10.3594 8C10.3594 7.09409 11.0941 6.35938 12 6.35938H28Z" fill="#212121" stroke="#212121" stroke-width="1.28058" />
                        <path d="M34 14.3594C34.9059 14.3594 35.6406 15.0941 35.6406 16C35.6406 16.9059 34.9059 17.6406 34 17.6406H12C11.0941 17.6406 10.3594 16.9059 10.3594 16C10.3594 15.0941 11.0941 14.3594 12 14.3594H34Z" fill="#212121" stroke="#212121" stroke-width="1.28058" />
                        <path d="M21 22.3594C21.9059 22.3594 22.6406 23.0941 22.6406 24C22.6406 24.9059 21.9059 25.6406 21 25.6406H12C11.0941 25.6406 10.3594 24.9059 10.3594 24C10.3594 23.0941 11.0941 22.3594 12 22.3594H21Z" fill="#212121" stroke="#212121" stroke-width="1.28058" />

                        <path class="check-2" d="M33 6.58621L36.3981 10.1897C36.8061 10.6224 37.4994 10.6055 37.8858 10.1534L44 3" stroke="black" stroke-width="3" stroke-linecap="round" />

                        <path class="plus-2" d="M39.2695 1.35938C40.0927 1.35946 40.7514 2.025 40.7656 2.83594L40.8271 5.23047L40.8428 5.79785L40.8496 5.85449C40.8789 5.98405 40.9947 6.08008 41.1338 6.08008H41.5117C41.528 6.08008 41.5444 6.08374 41.5605 6.08496H44.1689C44.9815 6.08496 45.6406 6.74406 45.6406 7.55664C45.6406 8.36918 44.9815 9.02832 44.1689 9.02832H41.5156C41.1854 9.02832 40.9297 9.296 40.9404 9.61328C40.973 10.5592 41.0123 11.4402 40.9805 12.2041C40.9448 13.0606 40.2188 13.6405 39.4414 13.6406C38.5686 13.6406 37.8388 12.933 37.8623 12.0342C37.8737 11.5988 37.892 11.1201 37.9072 10.6289L37.9043 10.4668C37.8452 9.66452 37.1642 9.02813 36.3115 9.0293L34.8477 9.0332C34.0377 9.03678 33.3745 8.38525 33.3672 7.57324C33.3599 6.76057 34.0135 6.09349 34.8291 6.08984L37.1104 6.08594L37.1885 6.08105C37.5734 6.04136 37.8653 5.71343 37.8525 5.3252L38.4922 5.30469L37.8525 5.32227L37.79 2.8584C37.7758 2.02633 38.4501 1.35938 39.2695 1.35938Z" fill="#212121" stroke="#212121" stroke-width="1.28058" />
                    </g>
                    <defs>
                        <clipPath id="clip0_250_16786">
                            <rect width="48.9561" height="32.208" fill="white"
                                transform="translate(0.937012 0.0390625)" />
                        </clipPath>
                    </defs>
                </svg> 
