<svg width="49" height="33" viewBox="0 0 49 33" fill="none" xmlns="http://www.w3.org/2000/svg">
<g clip-path="url(#clip0_252_16822)">
<path d="M27.063 6.32031C27.9689 6.32031 28.7036 7.05503 28.7036 7.96094C28.7036 8.86684 27.9689 9.60156 27.063 9.60156H11.063C10.1571 9.60156 9.42236 8.86684 9.42236 7.96094C9.42236 7.05503 10.1571 6.32031 11.063 6.32031H27.063Z" fill="#212121" stroke="#212121" stroke-width="1.28058"/>
<path d="M33.063 14.3203C33.9689 14.3203 34.7036 15.055 34.7036 15.9609C34.7036 16.8668 33.9689 17.6016 33.063 17.6016H11.063C10.1571 17.6016 9.42236 16.8668 9.42236 15.9609C9.42236 15.055 10.1571 14.3203 11.063 14.3203H33.063Z" fill="#212121" stroke="#212121" stroke-width="1.28058"/>
<path d="M20.063 22.3203C20.9689 22.3203 21.7036 23.055 21.7036 23.9609C21.7036 24.8668 20.9689 25.6016 20.063 25.6016H11.063C10.1571 25.6016 9.42236 24.8668 9.42236 23.9609C9.42236 23.055 10.1571 22.3203 11.063 22.3203H20.063Z" fill="#212121" stroke="#212121" stroke-width="1.28058"/>
<path d="M31.9316 3.16055C31.4515 3.36578 31.2821 3.9608 31.582 4.38816L33.2703 6.79412L35.2728 9.93323C35.4503 10.2115 35.668 10.462 35.9189 10.6765V10.6765V10.6765C36.1306 10.8574 36.4472 10.8398 36.6374 10.6365L40.8378 6.14706L44.4079 1.98445C44.7348 1.60336 44.6904 1.02936 44.3088 0.70309V0.70309C44.2652 0.66582 44.2182 0.632763 44.1683 0.604361L44.136 0.585947C43.5534 0.253821 42.8137 0.41955 42.4285 0.968534L41.973 1.61765L40.4595 3.55882L38.9459 5.5L37.0541 7.44118V7.44118C36.6458 7.79028 36.0267 7.71809 35.7097 7.28441L34.4054 5.5L33.2703 3.88235L32.9027 3.41087C32.6733 3.1167 32.2746 3.01392 31.9316 3.16055V3.16055Z" fill="black" stroke="black"/>
</g>
<defs>
<clipPath id="clip0_252_16822">
<rect width="48.9561" height="32.208" fill="white"/>
</clipPath>
</defs>
</svg>
