<svg width="60" height="52" viewBox="-5 0 60 54" fill="none" xmlns="http://www.w3.org/2000/svg">
  <path d="M51.0186 26.9582C51.0186 26.6822 50.9897 26.4062 50.9752 26.1303C50.5848 20.3931 46.637 11.2426 42.2266 7.74223C33.6514 0.90118 19.4801 -1.58251 11.2375 6.58027C4.99055 12.7677 -0.186341 23.5013 1.9249 32.7535C6.71136 53.7124 35.3289 58.0116 46.7527 41.2794C49.2544 37.6047 51.1777 31.5479 51.0041 26.9727L51.0186 26.9582Z" stroke="#A9ABAD" stroke-width="2" stroke-miterlimit="10"/>
  <path d="M15.2695 38.5897C22.4131 37.8054 31.3063 38.1395 38.1606 36.6289" stroke="#A9ABAD" stroke-width="2" stroke-miterlimit="10"/>
  <path d="M18.22 20.1161C18.22 20.1161 18.22 20.058 18.22 20.029C18.1766 19.4335 17.7718 18.4749 17.309 18.1118C16.4125 17.4001 14.9375 17.1386 14.0843 17.9956C13.4336 18.6346 12.8985 19.753 13.1154 20.7116C13.6071 22.8903 16.586 23.3406 17.7862 21.5976C18.0465 21.22 18.249 20.5809 18.2345 20.1161H18.22Z" stroke="#A9ABAD" stroke-width="2" stroke-miterlimit="10"/>
  <path d="M38.1614 20.1161C38.1614 20.1161 38.1614 20.058 38.1614 20.029C38.1181 19.4335 37.7132 18.4749 37.2504 18.1118C36.3539 17.4001 34.8789 17.1386 34.0257 17.9956C33.375 18.6346 32.8399 19.753 33.0568 20.7116C33.5485 22.8903 36.5274 23.3406 37.7276 21.5976C37.9879 21.22 38.1904 20.5809 38.1759 20.1161H38.1614Z" stroke="#A9ABAD" stroke-width="2" stroke-miterlimit="10"/>
</svg>
