<svg width="60" height="53" viewBox="170 1 45 52" fill="none" xmlns="http://www.w3.org/2000/svg">
  <path d="M199.54 14.1311C200.22 9.91896 195.274 8.5246 192.57 11.2116" stroke="#101010" stroke-width="2" stroke-miterlimit="10"/>
  <path d="M213.541 26.9582C213.541 26.6822 213.512 26.4062 213.498 26.1303C213.107 20.3931 209.16 11.2426 204.749 7.74223C196.174 0.90118 182.003 -1.58251 173.76 6.58027C167.528 12.7677 162.336 23.5013 164.447 32.7389C169.234 53.6978 197.851 57.9971 209.275 41.2648C211.777 37.5901 213.7 31.5334 213.527 26.9582H213.541Z" stroke="#101010" stroke-width="2" stroke-miterlimit="10"/>
  <path d="M185.34 31.5488C184.761 35.2235 184.385 41.2657 186.54 44.0544C189.215 47.5112 191.269 42.7036 191.702 39.4937C192.122 36.429 192.281 32.9431 189.982 31.6069C188.029 30.474 186.265 30.7645 184.978 33.0884" stroke="#101010" stroke-width="2" stroke-miterlimit="10"/>
  <path d="M176.667 17.7037C177.317 19.4467 175.785 22.1192 177.086 23.7605C178.648 25.7358 179.602 24.385 180.036 22.7873C180.325 21.727 180.643 18.5897 180.036 17.7037C179.111 16.3529 177.419 16.4982 176.898 18.183" stroke="#101010" stroke-width="2" stroke-miterlimit="10"/>
  <path d="M194.741 17.7037C195.392 19.4467 193.859 22.1192 195.16 23.7605C196.722 25.7358 197.676 24.385 198.11 22.7873C198.399 21.727 198.718 18.5897 198.11 17.7037C197.185 16.3529 195.493 16.4982 194.972 18.183" stroke="#101010" stroke-width="2" stroke-miterlimit="10"/>
  <path d="M181.986 12.3015C180.511 8.29268 175.522 9.54179 174.48 13.202" stroke="#101010" stroke-width="2" stroke-miterlimit="10"/>
</svg>
