<svg width="215" height="53" viewBox="0 0 215 53" fill="none" xmlns="http://www.w3.org/2000/svg">
<g clip-path="url(#clip0_2752_30915)">
<path d="M199.54 14.1311C200.22 9.91896 195.274 8.5246 192.57 11.2116" stroke="#101010" stroke-width="2" stroke-miterlimit="10"/>
<path d="M181.986 12.3015C180.511 8.29268 175.522 9.54179 174.48 13.202" stroke="#101010" stroke-width="2" stroke-miterlimit="10"/>
<path d="M131.361 26.9582C131.361 26.6822 131.333 26.4062 131.318 26.1303C130.928 20.3931 126.98 11.2426 122.569 7.74223C113.994 0.90118 99.8229 -1.58251 91.5804 6.58027C85.3479 12.7677 80.1565 23.5013 82.2678 32.7389C87.0542 53.6978 115.672 57.9971 127.096 41.2648C129.597 37.5901 131.521 31.5334 131.347 26.9582H131.361Z" stroke="#A9ABAD" stroke-width="2" stroke-miterlimit="10"/>
<path d="M118.505 19.7093C117.638 15.5262 112.533 15.991 110.957 19.4624" stroke="#A9ABAD" stroke-width="2" stroke-miterlimit="10"/>
<path d="M100.009 19.7093C99.1417 15.5262 94.0371 15.991 92.4609 19.4624" stroke="#A9ABAD" stroke-width="2" stroke-miterlimit="10"/>
<path d="M94.6445 32.9688C97.233 36.6725 100.732 39.0981 105.374 39.3305C109.597 39.5484 115.106 38.2847 116.321 33.7095" stroke="#A9ABAD" stroke-width="2" stroke-miterlimit="10"/>
<path d="M213.541 26.9582C213.541 26.6822 213.512 26.4062 213.498 26.1303C213.107 20.3931 209.16 11.2426 204.749 7.74223C196.174 0.90118 182.003 -1.58251 173.76 6.58027C167.528 12.7677 162.336 23.5013 164.447 32.7389C169.234 53.6978 197.851 57.9971 209.275 41.2648C211.777 37.5901 213.7 31.5334 213.527 26.9582H213.541Z" stroke="#101010" stroke-width="2" stroke-miterlimit="10"/>
<path d="M185.34 31.5488C184.761 35.2235 184.385 41.2657 186.54 44.0544C189.215 47.5112 191.269 42.7036 191.702 39.4937C192.122 36.429 192.281 32.9431 189.982 31.6069C188.029 30.474 186.265 30.7645 184.978 33.0884" stroke="#101010" stroke-width="2" stroke-miterlimit="10"/>
<path d="M176.667 17.7037C177.317 19.4467 175.785 22.1192 177.086 23.7605C178.648 25.7358 179.602 24.385 180.036 22.7873C180.325 21.727 180.643 18.5897 180.036 17.7037C179.111 16.3529 177.419 16.4982 176.898 18.183" stroke="#101010" stroke-width="2" stroke-miterlimit="10"/>
<path d="M194.741 17.7037C195.392 19.4467 193.859 22.1192 195.16 23.7605C196.722 25.7358 197.676 24.385 198.11 22.7873C198.399 21.727 198.718 18.5897 198.11 17.7037C197.185 16.3529 195.493 16.4982 194.972 18.183" stroke="#101010" stroke-width="2" stroke-miterlimit="10"/>
<path d="M51.0186 26.9582C51.0186 26.6822 50.9897 26.4062 50.9752 26.1303C50.5848 20.3931 46.637 11.2426 42.2266 7.74223C33.6514 0.90118 19.4801 -1.58251 11.2375 6.58027C4.99055 12.7677 -0.186341 23.5013 1.9249 32.7535C6.71136 53.7124 35.3289 58.0116 46.7527 41.2794C49.2544 37.6047 51.1777 31.5479 51.0041 26.9727L51.0186 26.9582Z" stroke="#A9ABAD" stroke-width="2" stroke-miterlimit="10"/>
<path d="M15.2695 38.5897C22.4131 37.8054 31.3063 38.1395 38.1606 36.6289" stroke="#A9ABAD" stroke-width="2" stroke-miterlimit="10"/>
<path d="M18.22 20.1161C18.22 20.1161 18.22 20.058 18.22 20.029C18.1766 19.4335 17.7718 18.4749 17.309 18.1118C16.4125 17.4001 14.9375 17.1386 14.0843 17.9956C13.4336 18.6346 12.8985 19.753 13.1154 20.7116C13.6071 22.8903 16.586 23.3406 17.7862 21.5976C18.0465 21.22 18.249 20.5809 18.2345 20.1161H18.22Z" stroke="#A9ABAD" stroke-width="2" stroke-miterlimit="10"/>
<path d="M38.1614 20.1161C38.1614 20.1161 38.1614 20.058 38.1614 20.029C38.1181 19.4335 37.7132 18.4749 37.2504 18.1118C36.3539 17.4001 34.8789 17.1386 34.0257 17.9956C33.375 18.6346 32.8399 19.753 33.0568 20.7116C33.5485 22.8903 36.5274 23.3406 37.7276 21.5976C37.9879 21.22 38.1904 20.5809 38.1759 20.1161H38.1614Z" stroke="#A9ABAD" stroke-width="2" stroke-miterlimit="10"/>
</g>
<defs>
<clipPath id="clip0_2752_30915">
<rect width="215" height="53" fill="white"/>
</clipPath>
</defs>
</svg>
