<svg width="60" height="50" viewBox="85 0 50 54" fill="none" xmlns="http://www.w3.org/2000/svg">
  <path d="M131.361 26.9582C131.361 26.6822 131.333 26.4062 131.318 26.1303C130.928 20.3931 126.98 11.2426 122.569 7.74223C113.994 0.90118 99.8229 -1.58251 91.5804 6.58027C85.3479 12.7677 80.1565 23.5013 82.2678 32.7389C87.0542 53.6978 115.672 57.9971 127.096 41.2648C129.597 37.5901 131.521 31.5334 131.347 26.9582H131.361Z" stroke="#A9ABAD" stroke-width="2" stroke-miterlimit="10"/>
  <path d="M118.505 19.7093C117.638 15.5262 112.533 15.991 110.957 19.4624" stroke="#A9ABAD" stroke-width="2" stroke-miterlimit="10"/>
  <path d="M100.009 19.7093C99.1417 15.5262 94.0371 15.991 92.4609 19.4624" stroke="#A9ABAD" stroke-width="2" stroke-miterlimit="10"/>
  <path d="M94.6445 32.9688C97.233 36.6725 100.732 39.0981 105.374 39.3305C109.597 39.5484 115.106 38.2847 116.321 33.7095" stroke="#A9ABAD" stroke-width="2" stroke-miterlimit="10"/>
</svg>
