<svg width="61" height="112" viewBox="0 0 61 112" fill="none" xmlns="http://www.w3.org/2000/svg">
<path d="M59.6475 109.646C49.0215 112.933 38.6907 104.963 28.6944 103.842C29.3241 101.952 28.5567 100.319 27.8679 98.3908C26.7857 95.3604 25.7821 92.212 24.8179 89.0438C22.8107 82.4518 19.5836 76.8633 16.1203 70.9403C11.8305 63.6005 1.04712 54.1945 2.81812 44.8279C9.11501 43.9227 9.29211 49.9047 12.4209 53.3287C17.5174 58.8975 31.3903 61.7901 29.3241 50.5541C28.2221 44.5524 22.8304 38.9245 16.5139 38.0587C9.9218 37.1535 7.93434 44.9853 1.53906 44.0801C1.67681 41.9352 5.4943 36.9371 6.9111 35.1857C9.25275 32.2931 11.7518 29.8727 15.5693 30.0498C19.8984 30.2466 24.5817 30.345 27.0808 33.7296C28.4189 35.5399 32.6103 38.6687 32.6103 38.6687C30.7606 20.329 17.9307 3.99647 23.1846 2.22547C34.6764 -0.549094 35.8965 23.0839 38.8875 29.1447C36.9591 25.7994 34.2829 0.00188391 42.2524 8.34526C43.866 10.0375 43.7479 30.0302 45.6173 34.9496C47.9393 30.2269 48.3131 15.6457 54.2361 16.2557C56.1449 17.9677 49.238 41.0694 48.4902 55.8081C47.8212 68.8544 49.7103 99.1779 60.0017 108.053" stroke="#898A8D" stroke-width="2.91231" stroke-miterlimit="10"/>
</svg>
